HIERARCHY
ROOT hip
{
	OFFSET 0.000000 0.000000 0.000000 
	CHANNELS 6 Xposition Yposition Zposition Xrotation Zrotation Yrotation
	JOINT abdomen
	{
		OFFSET 0.000000 3.402643 0.000000 
		CHANNELS 3 Xrotation Zrotation Yrotation
		JOINT chest
		{
			OFFSET 0.000000 8.438565 -0.680529 
			CHANNELS 3 Xrotation Zrotation Yrotation
			JOINT neck
			{
				OFFSET 0.000000 10.207942 -0.272212 
				CHANNELS 3 Xrotation Zrotation Yrotation
				JOINT head
				{
					OFFSET 0.000000 3.130431 0.000000 
					CHANNELS 3 Xrotation Zrotation Yrotation
					End Site
					{
						OFFSET 0.000000 3.130435 0.000000 
					}
				}
			}
			JOINT lCollar
			{
				OFFSET 3.470700 6.669187 -0.816635 
				CHANNELS 3 Yrotation Zrotation Xrotation
				JOINT lShldr
				{
					OFFSET 3.198488 0.000000 0.000000 
					CHANNELS 3 Zrotation Yrotation Xrotation
					JOINT lForeArm
					{
						OFFSET 10.139888 0.000000 0.000000 
						CHANNELS 3 Yrotation Zrotation Xrotation
						JOINT lHand
						{
							OFFSET 8.370511 0.000000 0.000000 
							CHANNELS 3 Zrotation Yrotation Xrotation
							End Site
							{
								OFFSET 4.083176 0.000000 0.000000 
							}
						}
					}
				}
			}
			JOINT rCollar
			{
				OFFSET -3.470700 6.669187 -0.816635 
				CHANNELS 3 Yrotation Zrotation Xrotation
				JOINT rShldr
				{
					OFFSET -3.198488 0.000000 0.000000 
					CHANNELS 3 Zrotation Yrotation Xrotation
					JOINT rForeArm
					{
						OFFSET -10.139888 0.000000 0.000000 
						CHANNELS 3 Yrotation Zrotation Xrotation
						JOINT rHand
						{
							OFFSET -8.370511 0.000000 0.000000 
							CHANNELS 3 Zrotation Yrotation Xrotation
							End Site
							{
								OFFSET -4.083176 0.000000 0.000000 
							}
						}
					}
				}
			}
		}
	}
	JOINT lThigh
	{
		OFFSET 5.308129 -1.633274 1.361059 
		CHANNELS 3 Xrotation Zrotation Yrotation
		JOINT lShin
		{
			OFFSET -2.041588 -20.007561 0.000000 
			CHANNELS 3 Xrotation Zrotation Yrotation
			JOINT lFoot
			{
				OFFSET 0.000000 -19.190928 -1.224953 
				CHANNELS 3 Xrotation Yrotation Zrotation
				End Site
				{
					OFFSET 0.000000 -2.449906 4.627600 
				}
			}
		}
	}
	JOINT rThigh
	{
		OFFSET -5.308129 -1.633274 1.361059 
		CHANNELS 3 Xrotation Zrotation Yrotation
		JOINT rShin
		{
			OFFSET 2.041588 -20.007561 0.000000 
			CHANNELS 3 Xrotation Zrotation Yrotation
			JOINT rFoot
			{
				OFFSET 0.000000 -19.190928 -1.224953 
				CHANNELS 3 Xrotation Yrotation Zrotation
				End Site
				{
					OFFSET 0.000000 -2.449906 4.627600 
				}
			}
		}
	}
}
MOTION
Frames: 8
Frame Time: 0.016667
-0.199915 51.742336 -0.610655 -3.566710 -2.037066 -1.191493 29.236242 -2.824245 -0.729217 -11.023392 -2.902570 0.287175 -5.964841 5.478174 -1.635198 -5.964841 5.478174 -1.635198 4.264215 4.332428 -5.435359 -79.242973 1.848781 -1.254376 -27.874104 -4.663939 12.731537 -90.966209 -6.967620 -10.784552 17.032402 -2.510911 -5.983584 84.563232 32.584358 3.063095 92.327888 21.320618 -7.732217 58.846893 16.354164 -11.993279 -12.955240 12.270658 8.767110 38.405685 -0.965284 -2.709833 -18.548378 -3.269249 -10.251629 -6.033660 -0.888610 -6.495559 24.461672 -3.730308 3.838979 -18.953449 2.938718 3.887035 
-0.275665 51.461399 -0.811148 -4.192078 -2.025820 -0.339920 29.846727 -2.938196 -1.019404 -10.415268 -3.109273 0.054351 -6.264360 5.950841 -1.960148 -6.264360 5.950841 -1.960148 4.669576 4.269744 -4.705383 -78.471191 1.114412 -1.477461 -29.101845 -5.485765 13.148731 -90.346992 -6.159775 -10.649793 17.715157 -3.372169 -4.737742 84.463654 33.940838 3.284126 93.109840 20.806652 -8.101851 57.890846 17.153456 -11.783352 -14.315347 12.713578 8.881329 42.265522 0.166037 -4.679730 -20.804150 -4.501837 -10.835989 -6.727100 -0.820196 -6.839857 26.906998 -4.041545 3.529464 -19.980551 2.539063 3.928182 
-0.390185 51.205238 -1.024190 -4.826872 -1.897548 0.521448 30.613689 -3.371207 -1.212261 -9.657068 -3.582203 0.022171 -6.714562 6.595479 -2.561198 -6.714562 6.595479 -2.561198 4.556400 4.665055 -4.647367 -77.601074 0.510230 -1.428284 -30.630608 -5.972243 14.001395 -89.992889 -3.953110 -11.260497 17.838308 -3.667223 -3.960493 84.027313 35.082375 2.667131 94.713264 20.732597 -8.735209 56.404648 16.741205 -11.809102 -15.741491 13.788264 8.495168 46.253830 0.721880 -6.141520 -22.761671 -5.680926 -10.825913 -7.278773 -0.838554 -7.117552 29.129869 -4.233296 3.051001 -21.018042 2.251279 3.849939 
-0.516148 50.992298 -1.234298 -5.344672 -1.876577 1.484028 31.329395 -3.672049 -1.370039 -8.948162 -3.918730 -0.021320 -7.155107 7.122415 -3.185823 -7.155107 7.122415 -3.185823 4.357677 4.924357 -4.901900 -76.384552 -0.032977 -1.467210 -31.470684 -6.532300 15.550391 -88.806297 -1.315341 -11.367028 17.709145 -3.762971 -3.496287 83.392441 36.070652 1.561028 96.496284 20.993689 -9.099717 54.917156 16.528467 -13.179344 -17.156048 14.929272 7.547378 49.900532 0.867847 -6.781533 -23.947878 -6.232134 -10.785275 -7.649448 -0.623577 -7.774795 30.748163 -4.677107 2.695105 -21.867374 2.077723 3.886118 
-0.629678 50.838917 -1.418841 -5.589632 -2.079916 2.527596 31.921926 -3.800063 -1.441410 -8.358691 -4.063591 -0.044949 -7.576535 7.590190 -3.817950 -7.576535 7.590190 -3.817950 3.949626 5.046135 -5.287977 -74.802605 -1.016042 -1.359878 -31.574884 -6.983047 17.085552 -86.549522 0.358513 -10.979875 17.348209 -3.688288 -3.387966 82.524162 36.803417 0.356153 98.064713 21.265987 -9.740710 53.806725 16.077871 -14.361300 -18.548326 15.852782 6.435631 52.552193 1.020918 -6.823563 -24.281073 -5.976188 -9.906560 -7.936863 -0.175694 -8.906498 31.561279 -5.263435 3.326827 -22.245249 1.272503 3.691653 
-0.727473 50.750362 -1.576303 -5.629877 -2.381051 3.496165 32.414497 -3.872235 -1.473158 -7.867901 -4.142131 -0.049300 -7.902880 8.164969 -4.410319 -7.902880 8.164969 -4.410319 3.313345 5.471752 -5.948730 -73.445694 -2.264827 -1.611208 -30.651297 -7.346470 18.209368 -85.307854 0.158685 -10.564756 16.825680 -3.349398 -3.420018 81.648323 37.362705 -0.485212 99.276230 21.291992 -10.315199 53.063438 15.754437 -14.798904 -19.944647 16.722065 5.669178 54.123955 1.557557 -6.859025 -24.173391 -4.778460 -8.240603 -8.172161 0.400561 -9.743482 31.822514 -5.682829 3.709283 -22.308544 0.497193 3.526636 
-0.802562 50.726639 -1.707769 -5.533605 -2.721651 4.384372 32.897137 -3.928437 -1.574213 -7.386621 -4.229740 -0.124831 -8.214016 8.864677 -4.838604 -8.214016 8.864677 -4.838604 2.804832 5.572109 -6.482194 -71.704613 -3.794257 -2.207700 -29.765657 -7.552229 18.889620 -81.987144 0.564210 -9.979762 16.331312 -2.974340 -3.627711 81.257439 37.644501 -0.832444 100.411865 21.093746 -10.612127 52.474358 15.371516 -15.140967 -20.846218 17.779861 5.244648 54.435085 2.104063 -7.315966 -23.870619 -2.712343 -6.042448 -8.344288 0.908438 -9.660354 31.716223 -5.526834 2.827222 -22.070208 0.324619 3.595819 
-0.841371 50.763008 -1.805827 -5.271712 -3.160431 5.203126 33.299362 -3.920131 -1.798269 -6.983874 -4.299047 -0.338058 -8.548598 9.610869 -5.099117 -8.548598 9.610869 -5.099117 2.357679 5.776725 -6.927351 -70.030945 -5.485660 -3.295789 -28.654552 -7.476267 19.160654 -78.857925 0.292397 -9.365804 15.859077 -2.823821 -3.947026 81.670349 37.632683 -0.726043 101.526405 20.845083 -10.851507 52.069378 14.714613 -15.459069 -20.974304 18.669519 5.565003 53.129948 3.024567 -8.212435 -23.055294 -0.270974 -3.272696 -8.443407 1.386559 -9.348683 31.116768 -5.107608 1.715448 -21.545078 0.323034 3.732535 
